<svg version="1" xmlns="http://www.w3.org/2000/svg" width="682.667" height="682.667" viewBox="0 0 512.000000 512.000000"><path d="M0 58.5V117h8v11H0v269h84v-10h53v10h119v11H0v104h512V0H0v58.5zm245 64v5.5H94v11H84v-22h161v5.5zm183 43v5.5h-21v-11h21v5.5zm-323 11v5.5H84v-11h21v5.5zm-54 32v5.5H40v-11h11v5.5zm54 0v5.5H84v-11h21v5.5zm323 0v5.5h-21v-11h21v5.5zm0 86.5v5h-10v-10h10v5zm44 0v5h-11v-10h11v5zm-345 16v11h-11v-11h-11v11H84v-22h43v11zm43 5.5v5.5h-11v-11h11v5.5zm118 0v5.5h-54v-11h54v5.5zm43 0v5.5h-21v-11h21v5.5zm162 0v5.5H385v-11h108v5.5zM321 392v5h-54v-10h54v5zm32 0v5h-11v-10h11v5zm140 54v5H364v-10h129v5zm-280 21.5v5.5h-22v-11h22v5.5z"/></svg>