<?xml version="1.0" standalone="no"?>
<!DOCTYPE svg PUBLIC "-//W3C//DTD SVG 20010904//EN"
 "http://www.w3.org/TR/2001/REC-SVG-20010904/DTD/svg10.dtd">
<svg version="1.0" xmlns="http://www.w3.org/2000/svg"
 width="512.000000pt" height="512.000000pt" viewBox="0 0 512.000000 512.000000"
 preserveAspectRatio="xMidYMid meet">
<metadata>
Created by potrace 1.11, written by Peter Selinger 2001-2013
</metadata>
<g transform="translate(0.000000,512.000000) scale(0.100000,-0.100000)"
fill="#000000" stroke="none">
<path d="M0 4535 l0 -585 40 0 40 0 0 -55 0 -55 -40 0 -40 0 0 -1345 0 -1345
310 0 310 0 0 50 0 50 110 0 110 0 0 380 0 380 -110 0 -110 0 0 55 0 55 110 0
110 0 0 860 0 860 -110 0 -110 0 0 55 0 55 110 0 110 0 0 160 0 160 1720 0
1720 0 0 -1130 0 -1130 325 0 325 0 0 -55 0 -55 -325 0 -325 0 0 -540 0 -540
-1720 0 -1720 0 0 110 0 110 -420 0 -420 0 0 -520 0 -520 2560 0 2560 0 0
2560 0 2560 -2560 0 -2560 0 0 -585z m510 -1500 l0 -55 -55 0 -55 0 0 55 0 55
55 0 55 0 0 -55z m3990 -865 l0 -50 -55 0 -55 0 0 50 0 50 55 0 55 0 0 -50z
m220 0 l0 -50 -55 0 -55 0 0 50 0 50 55 0 55 0 0 -50z m210 -1510 l0 -50 -700
0 -700 0 0 50 0 50 700 0 700 0 0 -50z m-2800 -215 l0 -55 -110 0 -110 0 0 55
0 55 110 0 110 0 0 -55z"/>
<path d="M1270 3730 l0 -110 -110 0 -110 0 0 -50 0 -50 110 0 110 0 0 -1135 0
-1135 1290 0 1290 0 0 970 0 970 110 0 110 0 0 55 0 55 -110 0 -110 0 0 270 0
270 -1290 0 -1290 0 0 -110z m1510 -375 l0 -165 -220 0 -220 0 0 165 0 165
220 0 220 0 0 -165z m-870 -810 l0 -215 -215 0 -215 0 0 110 0 110 110 0 110
0 0 50 0 50 -110 0 -110 0 0 55 0 55 215 0 215 0 0 -215z m870 0 l0 -215 -220
0 -220 0 0 215 0 215 220 0 220 0 0 -215z m640 160 l0 -55 110 0 110 0 0 -50
0 -50 -110 0 -110 0 0 -55 0 -55 110 0 110 0 0 -55 0 -55 -215 0 -215 0 0 215
0 215 105 0 105 0 0 -55z m-1720 -750 l0 -55 -55 0 -55 0 0 55 0 55 55 0 55 0
0 -55z m1180 0 l0 -55 -50 0 -50 0 0 -215 0 -215 -220 0 -220 0 0 270 0 270
270 0 270 0 0 -55z m430 0 l0 -55 -105 0 -105 0 0 55 0 55 105 0 105 0 0 -55z"/>
</g>
</svg>
